<svg width="170" height="50" viewBox="0 0 170 50" fill="none" xmlns="http://www.w3.org/2000/svg">
<path d="M8.5 19.3247C7.4 19.3247 6.74 17.8067 6.74 14.6827C6.74 11.5807 7.4 10.0627 8.5 10.0627C9.622 10.0627 10.26 11.5807 10.26 14.6827C10.26 17.8067 9.622 19.3247 8.5 19.3247ZM14.462 13.3627H12.856C12.526 9.57866 10.898 7.33466 8.5 7.33466C5.816 7.33466 4.122 10.1067 4.122 14.6827C4.122 19.2807 5.816 22.0527 8.5 22.0527C10.964 22.0527 12.614 19.6767 12.878 15.7167H14.462V25.2647H17.168V6.23466H14.462V13.3627ZM18.576 5.88266V26.1447H21.326V5.88266H18.576ZM29.2883 19.1487C27.8143 19.1487 26.8243 17.5427 26.8243 14.5287C26.8243 11.5367 27.8143 9.93066 29.2883 9.93066C30.7843 9.93066 31.7743 11.5367 31.7743 14.5287C31.7743 17.5427 30.7843 19.1487 29.2883 19.1487ZM37.8463 5.88266V13.1867H34.4583C34.0623 9.53466 32.0163 7.31266 29.2883 7.31266C26.2743 7.31266 24.0523 10.0847 24.0523 14.5287C24.0523 18.9947 26.2743 21.7887 29.2883 21.7887C32.1043 21.7887 34.1723 19.4127 34.4803 15.5407H37.8463V26.2107H40.7503V5.88266H37.8463ZM57.4246 5.88266V26.2107H60.3286V5.88266H57.4246ZM44.5326 7.51066V21.4807H54.5206V7.51066H51.6386V12.4167H47.4146V7.51066H44.5326ZM47.4146 14.6827H51.6386V19.1707H47.4146V14.6827ZM76.3208 13.9347H77.8608V20.9967H80.6108V5.90466H77.8608V11.6027H76.3208V6.27866H73.6148V20.3367H76.3208V13.9347ZM66.0248 12.5047C66.0248 10.8327 66.8608 9.88666 68.0488 9.88666C69.2148 9.88666 70.0728 10.8327 70.0728 12.5047C70.0728 14.1767 69.2148 15.1227 68.0488 15.1227C66.8608 15.1227 66.0248 14.1767 66.0248 12.5047ZM72.6688 12.5047C72.6688 9.49066 70.7328 7.37866 68.0488 7.37866C65.3648 7.37866 63.4068 9.49066 63.4068 12.5047C63.4068 15.5187 65.3648 17.6307 68.0488 17.6307C70.7328 17.6307 72.6688 15.5187 72.6688 12.5047ZM69.8748 23.5047V19.0827H66.9708V25.8147H81.1168V23.5047H69.8748ZM97.0211 5.88266V26.2107H99.9251V5.88266H97.0211ZM84.1291 7.51066V21.4807H94.1171V7.51066H91.2351V12.4167H87.0111V7.51066H84.1291ZM87.0111 14.6827H91.2351V19.1707H87.0111V14.6827Z" fill="#222222"/>
<rect x="107.75" y="1.02466" width="61.5" height="31.5" rx="7.25" fill="#222222"/>
<path d="M116.001 24.2747V21.9867C116.587 21.488 117.101 21.0553 117.541 20.6887C117.981 20.3073 118.369 19.97 118.707 19.6767C119.044 19.3687 119.345 19.09 119.609 18.8407C119.873 18.5913 120.137 18.3347 120.401 18.0707C121.017 17.4547 121.523 16.9047 121.919 16.4207C122.315 15.9367 122.608 15.482 122.799 15.0567C123.004 14.6313 123.107 14.1913 123.107 13.7367C123.107 13.062 122.916 12.534 122.535 12.1527C122.168 11.7567 121.691 11.5587 121.105 11.5587C120.533 11.5587 120.041 11.742 119.631 12.1087C119.235 12.4753 118.963 12.974 118.817 13.6047L115.847 13.0987C116.023 12.2187 116.36 11.456 116.859 10.8107C117.372 10.1653 118.003 9.66666 118.751 9.31466C119.499 8.94799 120.32 8.76466 121.215 8.76466C121.963 8.76466 122.645 8.88932 123.261 9.13866C123.891 9.38799 124.434 9.73266 124.889 10.1727C125.343 10.6127 125.695 11.1333 125.945 11.7347C126.209 12.336 126.341 12.9887 126.341 13.6927C126.341 14.3527 126.223 14.976 125.989 15.5627C125.754 16.1493 125.38 16.758 124.867 17.3887C124.368 18.0193 123.723 18.7233 122.931 19.5007C122.579 19.838 122.212 20.1753 121.831 20.5127C121.464 20.8353 121.083 21.1653 120.687 21.5027H126.605V24.2747H116.001ZM133.915 24.6047C133.021 24.6047 132.214 24.4213 131.495 24.0547C130.791 23.688 130.183 23.16 129.669 22.4707C129.171 21.7813 128.789 20.9527 128.525 19.9847C128.261 19.0167 128.129 17.924 128.129 16.7067C128.129 15.4893 128.261 14.3893 128.525 13.4067C128.804 12.424 129.193 11.588 129.691 10.8987C130.205 10.2093 130.821 9.68132 131.539 9.31466C132.273 8.94799 133.094 8.76466 134.003 8.76466C134.898 8.76466 135.697 8.94799 136.401 9.31466C137.12 9.68132 137.729 10.2093 138.227 10.8987C138.741 11.588 139.129 12.4167 139.393 13.3847C139.657 14.3527 139.789 15.4453 139.789 16.6627C139.789 17.88 139.65 18.98 139.371 19.9627C139.107 20.9453 138.719 21.7813 138.205 22.4707C137.707 23.16 137.091 23.688 136.357 24.0547C135.639 24.4213 134.825 24.6047 133.915 24.6047ZM133.959 21.7227C134.81 21.7227 135.463 21.29 135.917 20.4247C136.387 19.5447 136.621 18.298 136.621 16.6847C136.621 15.0713 136.387 13.832 135.917 12.9667C135.463 12.0867 134.81 11.6467 133.959 11.6467C133.109 11.6467 132.449 12.0867 131.979 12.9667C131.525 13.832 131.297 15.0713 131.297 16.6847C131.297 18.298 131.525 19.5447 131.979 20.4247C132.449 21.29 133.109 21.7227 133.959 21.7227ZM141.052 24.2747V21.9867C141.639 21.488 142.152 21.0553 142.592 20.6887C143.032 20.3073 143.421 19.97 143.758 19.6767C144.096 19.3687 144.396 19.09 144.66 18.8407C144.924 18.5913 145.188 18.3347 145.452 18.0707C146.068 17.4547 146.574 16.9047 146.97 16.4207C147.366 15.9367 147.66 15.482 147.85 15.0567C148.056 14.6313 148.158 14.1913 148.158 13.7367C148.158 13.062 147.968 12.534 147.586 12.1527C147.22 11.7567 146.743 11.5587 146.156 11.5587C145.584 11.5587 145.093 11.742 144.682 12.1087C144.286 12.4753 144.015 12.974 143.868 13.6047L140.898 13.0987C141.074 12.2187 141.412 11.456 141.91 10.8107C142.424 10.1653 143.054 9.66666 143.802 9.31466C144.55 8.94799 145.372 8.76466 146.266 8.76466C147.014 8.76466 147.696 8.88932 148.312 9.13866C148.943 9.38799 149.486 9.73266 149.94 10.1727C150.395 10.6127 150.747 11.1333 150.996 11.7347C151.26 12.336 151.392 12.9887 151.392 13.6927C151.392 14.3527 151.275 14.976 151.04 15.5627C150.806 16.1493 150.432 16.758 149.918 17.3887C149.42 18.0193 148.774 18.7233 147.982 19.5007C147.63 19.838 147.264 20.1753 146.882 20.5127C146.516 20.8353 146.134 21.1653 145.738 21.5027H151.656V24.2747H141.052ZM156.701 24.2747V12.4387L153.621 14.1547L152.587 11.5587L157.141 9.09466H159.803V24.2747H156.701Z" fill="white"/>
<rect x="107.75" y="1.02466" width="61.5" height="31.5" rx="7.25" stroke="#222222" stroke-width="1.5"/>
</svg>
