<svg width="108" height="36" viewBox="0 0 108 36" fill="none" xmlns="http://www.w3.org/2000/svg">
<path d="M5.5 12.35C4.8 12.35 4.38 11.384 4.38 9.396C4.38 7.422 4.8 6.456 5.5 6.456C6.214 6.456 6.62 7.422 6.62 9.396C6.62 11.384 6.214 12.35 5.5 12.35ZM9.294 8.556H8.272C8.062 6.148 7.026 4.72 5.5 4.72C3.792 4.72 2.714 6.484 2.714 9.396C2.714 12.322 3.792 14.086 5.5 14.086C7.068 14.086 8.118 12.574 8.286 10.054H9.294V16.13H11.016V4.02H9.294V8.556ZM11.912 3.796V16.69H13.662V3.796H11.912ZM18.7289 12.238C17.7909 12.238 17.1609 11.216 17.1609 9.298C17.1609 7.394 17.7909 6.372 18.7289 6.372C19.6809 6.372 20.3109 7.394 20.3109 9.298C20.3109 11.216 19.6809 12.238 18.7289 12.238ZM24.1749 3.796V8.444H22.0189C21.7669 6.12 20.4649 4.706 18.7289 4.706C16.8109 4.706 15.3969 6.47 15.3969 9.298C15.3969 12.14 16.8109 13.918 18.7289 13.918C20.5209 13.918 21.8369 12.406 22.0329 9.942H24.1749V16.732H26.0229V3.796H24.1749ZM36.6338 3.796V16.732H38.4818V3.796H36.6338ZM28.4298 4.832V13.722H34.7858V4.832H32.9518V7.954H30.2638V4.832H28.4298ZM30.2638 9.396H32.9518V12.252H30.2638V9.396ZM48.6587 8.92H49.6387V13.414H51.3887V3.81H49.6387V7.436H48.6587V4.048H46.9367V12.994H48.6587V8.92ZM42.1067 8.01C42.1067 6.946 42.6387 6.344 43.3947 6.344C44.1367 6.344 44.6827 6.946 44.6827 8.01C44.6827 9.074 44.1367 9.676 43.3947 9.676C42.6387 9.676 42.1067 9.074 42.1067 8.01ZM46.3347 8.01C46.3347 6.092 45.1027 4.748 43.3947 4.748C41.6867 4.748 40.4407 6.092 40.4407 8.01C40.4407 9.928 41.6867 11.272 43.3947 11.272C45.1027 11.272 46.3347 9.928 46.3347 8.01ZM44.5567 15.01V12.196H42.7087V16.48H51.7107V15.01H44.5567ZM61.8316 3.796V16.732H63.6796V3.796H61.8316ZM53.6276 4.832V13.722H59.9836V4.832H58.1496V7.954H55.4616V4.832H53.6276ZM55.4616 9.396H58.1496V12.252H55.4616V9.396Z" fill="#222222"/>
<rect x="69" width="39" height="21" rx="5.03297" fill="#222222"/>
<path d="M74.1822 15.5V14.044C74.5555 13.7267 74.8822 13.4513 75.1622 13.218C75.4422 12.9753 75.6895 12.7607 75.9042 12.574C76.1188 12.378 76.3102 12.2007 76.4782 12.042C76.6462 11.8833 76.8142 11.72 76.9822 11.552C77.3742 11.16 77.6962 10.81 77.9482 10.502C78.2002 10.194 78.3868 9.90467 78.5082 9.634C78.6388 9.36333 78.7042 9.08333 78.7042 8.794C78.7042 8.36467 78.5828 8.02867 78.3402 7.786C78.1068 7.534 77.8035 7.408 77.4302 7.408C77.0662 7.408 76.7535 7.52467 76.4922 7.758C76.2402 7.99133 76.0675 8.30867 75.9742 8.71L74.0842 8.388C74.1962 7.828 74.4108 7.34267 74.7282 6.932C75.0548 6.52133 75.4562 6.204 75.9322 5.98C76.4082 5.74667 76.9308 5.63 77.5002 5.63C77.9762 5.63 78.4102 5.70933 78.8022 5.868C79.2035 6.02667 79.5488 6.246 79.8382 6.526C80.1275 6.806 80.3515 7.13733 80.5102 7.52C80.6782 7.90267 80.7622 8.318 80.7622 8.766C80.7622 9.186 80.6875 9.58267 80.5382 9.956C80.3888 10.3293 80.1508 10.7167 79.8242 11.118C79.5068 11.5193 79.0962 11.9673 78.5922 12.462C78.3682 12.6767 78.1348 12.8913 77.8922 13.106C77.6588 13.3113 77.4162 13.5213 77.1642 13.736H80.9302V15.5H74.1822ZM85.5825 15.71C85.0132 15.71 84.4999 15.5933 84.0425 15.36C83.5945 15.1267 83.2072 14.7907 82.8805 14.352C82.5632 13.9133 82.3205 13.386 82.1525 12.77C81.9845 12.154 81.9005 11.4587 81.9005 10.684C81.9005 9.90933 81.9845 9.20933 82.1525 8.584C82.3299 7.95867 82.5772 7.42667 82.8945 6.988C83.2212 6.54933 83.6132 6.21333 84.0705 5.98C84.5372 5.74667 85.0599 5.63 85.6385 5.63C86.2079 5.63 86.7165 5.74667 87.1645 5.98C87.6219 6.21333 88.0092 6.54933 88.3265 6.988C88.6532 7.42667 88.9005 7.954 89.0685 8.57C89.2365 9.186 89.3205 9.88133 89.3205 10.656C89.3205 11.4307 89.2319 12.1307 89.0545 12.756C88.8865 13.3813 88.6392 13.9133 88.3125 14.352C87.9952 14.7907 87.6032 15.1267 87.1365 15.36C86.6792 15.5933 86.1612 15.71 85.5825 15.71ZM85.6105 13.876C86.1519 13.876 86.5672 13.6007 86.8565 13.05C87.1552 12.49 87.3045 11.6967 87.3045 10.67C87.3045 9.64333 87.1552 8.85467 86.8565 8.304C86.5672 7.744 86.1519 7.464 85.6105 7.464C85.0692 7.464 84.6492 7.744 84.3505 8.304C84.0612 8.85467 83.9165 9.64333 83.9165 10.67C83.9165 11.6967 84.0612 12.49 84.3505 13.05C84.6492 13.6007 85.0692 13.876 85.6105 13.876ZM90.1241 15.5V14.044C90.4974 13.7267 90.8241 13.4513 91.1041 13.218C91.3841 12.9753 91.6314 12.7607 91.8461 12.574C92.0608 12.378 92.2521 12.2007 92.4201 12.042C92.5881 11.8833 92.7561 11.72 92.9241 11.552C93.3161 11.16 93.6381 10.81 93.8901 10.502C94.1421 10.194 94.3288 9.90467 94.4501 9.634C94.5808 9.36333 94.6461 9.08333 94.6461 8.794C94.6461 8.36467 94.5248 8.02867 94.2821 7.786C94.0488 7.534 93.7454 7.408 93.3721 7.408C93.0081 7.408 92.6954 7.52467 92.4341 7.758C92.1821 7.99133 92.0094 8.30867 91.9161 8.71L90.0261 8.388C90.1381 7.828 90.3528 7.34267 90.6701 6.932C90.9968 6.52133 91.3981 6.204 91.8741 5.98C92.3501 5.74667 92.8728 5.63 93.4421 5.63C93.9181 5.63 94.3521 5.70933 94.7441 5.868C95.1454 6.02667 95.4908 6.246 95.7801 6.526C96.0694 6.806 96.2934 7.13733 96.4521 7.52C96.6201 7.90267 96.7041 8.318 96.7041 8.766C96.7041 9.186 96.6294 9.58267 96.4801 9.956C96.3308 10.3293 96.0928 10.7167 95.7661 11.118C95.4488 11.5193 95.0381 11.9673 94.5341 12.462C94.3101 12.6767 94.0768 12.8913 93.8341 13.106C93.6008 13.3113 93.3581 13.5213 93.1061 13.736H96.8721V15.5H90.1241ZM100.082 15.5V7.968L98.1225 9.06L97.4645 7.408L100.362 5.84H102.056V15.5H100.082Z" fill="white"/>
</svg>
